<svg width="18" height="17" viewBox="0 0 18 17" fill="none" xmlns="http://www.w3.org/2000/svg">
<path d="M14.4 7.55556L18 3.81375L14.4 0V2.93908C12.2907 3.15416 10.7956 3.6892 9.68713 4.469C8.85588 5.05378 8.28237 5.75021 7.84373 6.45957C7.45791 5.77039 6.96411 5.08416 6.2533 4.50668C4.94356 3.44261 3.02813 2.83333 0 2.83333V4.72222C2.82187 4.72222 4.28144 5.2935 5.15139 6.00027C5.94105 6.64181 6.35218 7.4662 6.82406 8.50371C6.75919 8.65447 6.69954 8.79837 6.64239 8.93622C6.31515 9.72562 6.07012 10.3167 5.4 10.8611C4.53005 11.5679 2.82187 12.2778 0 12.2778V14.1667C3.02813 14.1667 4.94356 13.5574 6.2533 12.4933C6.96411 11.9158 7.45791 11.2296 7.84373 10.5404C8.28237 11.2498 8.85588 11.9462 9.68713 12.531C10.7956 13.3108 12.2907 13.8458 14.4 14.0609V17L18 13.2582L14.4 9.44444V12.1622C12.5971 11.958 11.4589 11.5033 10.6894 10.9621C9.77367 10.3178 9.28437 9.48931 8.81829 8.5C9.28437 7.5107 9.77367 6.68219 10.6894 6.03795C11.4589 5.49665 12.5971 5.04204 14.4 4.83781V7.55556Z" fill="white"/>
</svg>
