<svg width="17" height="17" viewBox="0 0 17 17" fill="none" xmlns="http://www.w3.org/2000/svg">
<path d="M3.64523 3.64523C6.10343 1.18703 10.0877 1.18493 12.5485 3.63893L9.9 6.3L16.2 6.27001L16.1702 3.48661e-08L13.8182 2.36312C10.6542 -0.790809 5.53257 -0.787702 2.37244 2.37244C0.790997 3.95387 9.38773e-06 6.0284 0 8.09996L1.8 8.09997C1.80001 6.48628 2.41491 4.87555 3.64523 3.64523Z" fill="white"/>
<path d="M12.5548 12.5548C13.7851 11.3244 14.4 9.71369 14.4 8.09997L16.2 8.09996C16.2 10.1716 15.409 12.2461 13.8276 13.8276C10.6674 16.9877 5.54576 16.9908 2.38177 13.8369L0.0298506 16.2L0 9.92999L6.3 9.9L3.65154 12.5611C6.11234 15.0151 10.0966 15.013 12.5548 12.5548Z" fill="white"/>
</svg>
