<svg width="20" height="17" viewBox="0 0 20 17" fill="none" xmlns="http://www.w3.org/2000/svg">
<path d="M1.07416 12.5458C0.480918 12.5458 0 12.0566 0 11.453V4.89623C0 4.29269 0.480917 3.80343 1.07416 3.80343H2.00013C2.29631 3.80343 2.57935 3.67901 2.78234 3.45959L5.66275 0.346034C6.32944 -0.374611 7.51912 0.105376 7.51912 1.095V15.2543C7.51912 16.2439 6.32944 16.7239 5.66275 16.0032L2.78234 12.8897C2.57935 12.6703 2.29631 12.5458 2.00013 12.5458H1.07416Z" fill="white"/>
<path d="M13.1371 7.75221L9 11.8893L10.3629 13.2522L14.5 9.11511L18.6371 13.2522L20 11.8893L15.8629 7.75221L20 3.61512L18.6371 2.25223L14.5 6.38932L10.3629 2.25223L9.00003 3.61512L13.1371 7.75221Z" fill="white"/>
</svg>
