<svg width="18" height="17" viewBox="0 0 18 17" fill="none" xmlns="http://www.w3.org/2000/svg">
<path d="M13.0202 1.54545C16.7955 5.38634 16.7955 11.6137 13.0202 15.4545L14.5392 17C19.1536 12.3056 19.1536 4.69442 14.5392 0L13.0202 1.54545Z" fill="white"/>
<path d="M1.07416 12.7936C0.480918 12.7936 0 12.3043 0 11.7008V5.14398C0 4.54045 0.480917 4.05118 1.07416 4.05118H2.00013C2.29631 4.05118 2.57935 3.92677 2.78234 3.70735L5.66275 0.593791C6.32944 -0.126854 7.51912 0.353133 7.51912 1.34276V15.502C7.51912 16.4916 6.32944 16.9716 5.66275 16.251L2.78234 13.1374C2.57935 12.918 2.29631 12.7936 2.00013 12.7936H1.07416Z" fill="white"/>
<path d="M9.79768 12.5511C11.8951 10.4173 11.8951 6.95769 9.79768 4.82386L11.3168 3.2784C14.2532 6.26576 14.2532 11.1092 11.3168 14.0966L9.79768 12.5511Z" fill="white"/>
</svg>
